<?xml version="1.0" encoding="UTF-8"?>
<svg width="512" height="512" viewBox="0 0 512 512" fill="none" xmlns="http://www.w3.org/2000/svg">
    <!-- Fond avec un dégradé bleu clair -->
    <rect width="512" height="512" rx="50" fill="url(#paint0_linear)"/>
    
    <!-- Enveloppe -->
    <path d="M396 156H116C103.85 156 94 165.85 94 178V334C94 346.15 103.85 356 116 356H396C408.15 356 418 346.15 418 334V178C418 165.85 408.15 156 396 156Z" fill="white"/>
    
    <!-- Icône de verrouillage -->
    <path d="M256 246C243.85 246 234 255.85 234 268V290C234 302.15 243.85 312 256 312C268.15 312 278 302.15 278 290V268C278 255.85 268.15 246 256 246ZM267 290C267 296.07 262.07 301 256 301C249.93 301 245 296.07 245 290V268C245 261.93 249.93 257 256 257C262.07 257 267 261.93 267 268V290Z" fill="#2196F3"/>
    
    <!-- Numéros -->
    <text x="190" y="220" font-family="Arial" font-size="24" font-weight="bold" fill="#2196F3">****</text>
    <text x="270" y="220" font-family="Arial" font-size="24" font-weight="bold" fill="#2196F3">****</text>
    
    <!-- Lignes décoratives -->
    <line x1="94" y1="200" x2="418" y2="200" stroke="#E3F2FD" stroke-width="2"/>
    <line x1="94" y1="312" x2="418" y2="312" stroke="#E3F2FD" stroke-width="2"/>
    
    <!-- Dégradé pour le fond -->
    <defs>
        <linearGradient id="paint0_linear" x1="0" y1="0" x2="512" y2="512" gradientUnits="userSpaceOnUse">
            <stop offset="0" stop-color="#E3F2FD"/>
            <stop offset="1" stop-color="#BBDEFB"/>
        </linearGradient>
    </defs>
</svg>
