<?xml version="1.0" encoding="UTF-8"?>
<svg width="400" height="300" viewBox="0 0 400 300" xmlns="http://www.w3.org/2000/svg">
  <!-- Background Elements -->
  <circle cx="200" cy="150" r="140" fill="#E3F2FD" opacity="0.5"/>
  <circle cx="180" cy="130" r="100" fill="#BBDEFB" opacity="0.3"/>
  
  <!-- Bank Building -->
  <g transform="translate(120,60)">
    <!-- Main Building -->
    <rect x="40" y="80" width="120" height="140" fill="#2196F3"/>
    <rect x="50" y="60" width="100" height="20" fill="#1976D2"/>
    
    <!-- Pillars -->
    <rect x="55" y="80" width="15" height="140" fill="#1565C0"/>
    <rect x="92.5" y="80" width="15" height="140" fill="#1565C0"/>
    <rect x="130" y="80" width="15" height="140" fill="#1565C0"/>
    
    <!-- Steps -->
    <rect x="35" y="220" width="130" height="10" fill="#1565C0"/>
    <rect x="30" y="230" width="140" height="10" fill="#0D47A1"/>
    
    <!-- Door -->
    <rect x="85" y="160" width="30" height="60" fill="#0D47A1"/>
    <circle cx="110" cy="190" r="2" fill="#FFFFFF"/>
    
    <!-- Windows -->
    <rect x="60" y="100" width="20" height="30" fill="#BBDEFB"/>
    <rect x="120" y="100" width="20" height="30" fill="#BBDEFB"/>
    <rect x="60" y="140" width="20" height="30" fill="#BBDEFB"/>
    <rect x="120" y="140" width="20" height="30" fill="#BBDEFB"/>
  </g>
  
  <!-- Lock Icon -->
  <g transform="translate(280,40)">
    <rect x="10" y="15" width="40" height="30" rx="5" fill="#1976D2"/>
    <path d="M15,15 L15,10 Q15,0 30,0 Q45,0 45,10 L45,15" stroke="#1976D2" stroke-width="4" fill="none"/>
  </g>
  
  <!-- Decorative Elements -->
  <circle cx="50" cy="50" r="20" fill="#64B5F6" opacity="0.5"/>
  <circle cx="350" cy="250" r="25" fill="#2196F3" opacity="0.3"/>
  <circle cx="30" cy="200" r="15" fill="#90CAF9" opacity="0.4"/>
</svg>
