<?xml version="1.0" encoding="UTF-8"?>
<svg width="400" height="400" viewBox="0 0 400 400" xmlns="http://www.w3.org/2000/svg">
  <!-- Background Circle -->
  <circle cx="200" cy="200" r="180" fill="#EDE7F6"/>
  
  <!-- Phone Frame -->
  <g transform="translate(120,80)">
    <rect x="0" y="0" width="160" height="280" rx="20" fill="#673AB7"/>
    <rect x="10" y="10" width="140" height="260" rx="10" fill="#FFFFFF"/>
    
    <!-- App Interface -->
    <rect x="20" y="30" width="120" height="30" rx="5" fill="#D1C4E9"/>
    <rect x="20" y="70" width="120" height="30" rx="5" fill="#D1C4E9"/>
    <rect x="20" y="110" width="120" height="30" rx="5" fill="#D1C4E9"/>
    
    <!-- Bottom Navigation -->
    <rect x="20" y="220" width="25" height="25" rx="5" fill="#673AB7"/>
    <rect x="57.5" y="220" width="25" height="25" rx="5" fill="#673AB7"/>
    <rect x="95" y="220" width="25" height="25" rx="5" fill="#673AB7"/>
  </g>
  
  <!-- Notification Icons -->
  <g transform="translate(260,100)">
    <circle cx="20" cy="20" r="15" fill="#9575CD"/>
    <circle cx="20" cy="60" r="15" fill="#9575CD"/>
    <path d="M10,20 L30,20 M20,10 L20,30" stroke="white" stroke-width="2"/>
    <path d="M10,60 L30,60 M20,50 L20,70" stroke="white" stroke-width="2"/>
  </g>
</svg>
