<?xml version="1.0" encoding="UTF-8"?>
<svg width="400" height="400" viewBox="0 0 400 400" xmlns="http://www.w3.org/2000/svg">
  <!-- Background Circle -->
  <circle cx="200" cy="200" r="180" fill="#E3F2FD"/>
  
  <!-- Bank Buildings -->
  <g transform="translate(100,100)">
    <!-- Bank 1 -->
    <rect x="20" y="100" width="80" height="120" fill="#2196F3"/>
    <rect x="30" y="80" width="60" height="20" fill="#1976D2"/>
    <rect x="35" y="120" width="20" height="40" fill="#FFFFFF"/>
    <rect x="65" y="120" width="20" height="40" fill="#FFFFFF"/>
    
    <!-- Bank 2 -->
    <rect x="120" y="80" width="80" height="140" fill="#64B5F6"/>
    <rect x="130" y="60" width="60" height="20" fill="#42A5F5"/>
    <rect x="135" y="100" width="20" height="40" fill="#FFFFFF"/>
    <rect x="165" y="100" width="20" height="40" fill="#FFFFFF"/>
    
    <!-- Bank 3 -->
    <rect x="220" y="120" width="80" height="100" fill="#1976D2"/>
    <rect x="230" y="100" width="60" height="20" fill="#0D47A1"/>
    <rect x="235" y="140" width="20" height="40" fill="#FFFFFF"/>
    <rect x="265" y="140" width="20" height="40" fill="#FFFFFF"/>
  </g>
  
  <!-- Connection Lines -->
  <path d="M120,280 Q200,230 280,280" stroke="#2196F3" stroke-width="4" fill="none"/>
  <circle cx="120" cy="280" r="5" fill="#2196F3"/>
  <circle cx="200" cy="230" r="5" fill="#2196F3"/>
  <circle cx="280" cy="280" r="5" fill="#2196F3"/>
</svg>
